# xmcd CD database file
#
# Track frame offsets:
#	150
#	14412
#	38192
#	72142
#	123757
#	168067
#	220652
#	259120
#
# Disc length: 4070 seconds
#
# Revision: 0
# Processed by: cddbd v1.4PL0 Copyright (c) Steve Scherf et al.
# Submitted via: CDex 1.50beta9
#
DISCID=610fe408
DTITLE=Cecil Taylor - The Complete Candid Recordings Of Cecil Taylor And Buell Neidlinger, Disc 3
DYEAR=1961
DGENRE=Jazz
TTITLE0=Davis (Take 1)
TTITLE1=Davis (Take 3)
TTITLE2=O.P. (Take 1)
TTITLE3=Cell Walk For Celeste (Take 1)
TTITLE4=Cell Walk For Celeste (Take 3)
TTITLE5=Cell Walk For Celeste (Take 8)
TTITLE6=I Forgot (Take 1)
TTITLE7=Section C (Take 1)
EXTD=YEAR: 1961
EXTT0=
EXTT1=
EXTT2=
EXTT3=
EXTT4=
EXTT5=
EXTT6=
EXTT7=
PLAYORDER=
